<?xml version="1.0" encoding="iso-8859-1"?>
<!-- Generator: Adobe Illustrator 19.2.1, SVG Export Plug-In . SVG Version: 6.00 Build 0)  -->
<svg version="1.1" xmlns="http://www.w3.org/2000/svg" xmlns:xlink="http://www.w3.org/1999/xlink" x="0px" y="0px"
	 viewBox="0 0 48 48" style="enable-background:new 0 0 48 48;" xml:space="preserve">
<g id="creativity-idea-light-bulb-bright-think">
	<rect x="23" width="2" height="6"/>
	<rect x="35.172" y="9" transform="matrix(0.7071 -0.7071 0.7071 0.7071 4.0589 29.799)" width="5.657" height="2"/>
	<rect x="9" y="7.172" transform="matrix(0.7071 -0.7071 0.7071 0.7071 -4.1421 10)" width="2" height="5.657"/>
	<path d="M24,9c-7.168,0-13,5.832-13,13c0,5.662,3.663,10.636,9,12.357V39c0,0.553,0.447,1,1,1h6c0.553,0,1-0.447,1-1v-4.643
		c5.337-1.722,9-6.695,9-12.357C37,14.832,31.168,9,24,9z M26.75,32.638C26.309,32.752,26,33.15,26,33.606V38h-4v-4.394
		c0-0.456-0.309-0.854-0.75-0.969C16.393,31.386,13,27.011,13,22c0-6.065,4.935-11,11-11s11,4.935,11,11
		C35,27.011,31.607,31.386,26.75,32.638z"/>
	<rect x="20" y="42" width="8" height="2"/>
	<rect x="20" y="46" width="8" height="2"/>
	<rect x="23" y="22" width="2" height="8"/>
	<rect x="41" y="23" width="7" height="2"/>
	<rect y="23" width="7" height="2"/>
	<rect x="25" y="18" width="2" height="2"/>
	<rect x="21" y="18" width="2" height="2"/>
	<rect x="17" y="18" width="2" height="2"/>
	<rect x="29" y="18" width="2" height="2"/>
</g>
<g id="Layer_1">
</g>
</svg>
