<?xml version="1.0" encoding="UTF-8" standalone="no"?> <svg width="64" height="64" viewBox="0 0 64 64" fill="#fff" xmlns="http://www.w3.org/2000/svg">
<path d="M61.15 44.9C60.6193 43.9828 59.7468 43.3132 58.7235 43.0377C57.7002 42.7622 56.6095 42.9032 55.69 43.43L45.94 49.06C45.4076 48.2622 44.6051 47.6834 43.68 47.43L28.76 43.44C27.6118 43.1302 26.4033 43.1198 25.25 43.41L20 44.72V43C20 42.7348 19.8946 42.4804 19.7071 42.2929C19.5196 42.1054 19.2652 42 19 42H11C10.7348 42 10.4804 42.1054 10.2929 42.2929C10.1054 42.4804 10 42.7348 10 43V44H3C2.73478 44 2.48043 44.1054 2.29289 44.2929C2.10536 44.4804 2 44.7348 2 45V59C2 59.2652 2.10536 59.5196 2.29289 59.7071C2.48043 59.8946 2.73478 60 3 60H10V61C10 61.2652 10.1054 61.5196 10.2929 61.7071C10.4804 61.8946 10.7348 62 11 62H19C19.2652 62 19.5196 61.8946 19.7071 61.7071C19.8946 61.5196 20 61.2652 20 61V59.62L21.29 60.26C22.2625 60.7441 23.3336 60.9973 24.42 61H39.39C40.6194 61.0027 41.8274 60.6782 42.89 60.06L59.69 50.36C60.6051 49.8272 61.2723 48.954 61.5458 47.931C61.8193 46.9081 61.6771 45.8184 61.15 44.9V44.9ZM10 58H4V46H10V58ZM18 60H12V44H18V60ZM58.69 48.63L41.89 58.33C41.1302 58.7697 40.2678 59.0008 39.39 59H24.42C23.6421 59.0016 22.8747 58.82 22.18 58.47L20 57.38V46.78L25.73 45.35C26.5546 45.1415 27.4189 45.1484 28.24 45.37L43.16 49.37C43.5439 49.4697 43.8892 49.6817 44.1518 49.9789C44.4143 50.2761 44.5822 50.645 44.6337 51.0382C44.6853 51.4314 44.6183 51.8311 44.4412 52.1859C44.2642 52.5408 43.9852 52.8347 43.64 53.03C43.4146 53.1629 43.1648 53.2492 42.9053 53.2835C42.6459 53.3179 42.3822 53.2997 42.13 53.23L30.2 50.03C29.9427 49.961 29.6686 49.9971 29.438 50.1303C29.2073 50.2634 29.039 50.4827 28.97 50.74C28.901 50.9973 28.9371 51.2714 29.0703 51.502C29.2034 51.7327 29.4227 51.901 29.68 51.97L41.61 55.16C41.9492 55.2513 42.2987 55.2984 42.65 55.3C43.3497 55.301 44.0368 55.1145 44.64 54.76C45.0971 54.4989 45.4977 54.1497 45.8187 53.7326C46.1397 53.3154 46.3747 52.8387 46.51 52.33C46.6209 51.8892 46.6581 51.433 46.62 50.98L56.69 45.17C57.1495 44.9149 57.6901 44.8485 58.1977 44.9847C58.7052 45.121 59.14 45.4492 59.41 45.9C59.6756 46.3577 59.7489 46.902 59.614 47.4137C59.479 47.9254 59.1468 48.3628 58.69 48.63V48.63Z" fill="white"/>
<path d="M15 59C15.2652 59 15.5196 58.8946 15.7071 58.7071C15.8946 58.5196 16 58.2652 16 58V57C16 56.7348 15.8946 56.4804 15.7071 56.2929C15.5196 56.1054 15.2652 56 15 56C14.7348 56 14.4804 56.1054 14.2929 56.2929C14.1054 56.4804 14 56.7348 14 57V58C14 58.2652 14.1054 58.5196 14.2929 58.7071C14.4804 58.8946 14.7348 59 15 59Z" fill="white"/>
<path d="M46 17H42.25L42.07 16.58L44.73 13.93C44.9174 13.7412 45.0225 13.486 45.0225 13.22C45.0225 12.954 44.9174 12.6988 44.73 12.51L40.49 8.27C40.3012 8.08265 40.046 7.97752 39.78 7.97752C39.514 7.97752 39.2588 8.08265 39.07 8.27L36.42 10.93L36 10.75V7C36 6.73478 35.8946 6.48043 35.7071 6.29289C35.5196 6.10536 35.2652 6 35 6H29C28.7348 6 28.4804 6.10536 28.2929 6.29289C28.1054 6.48043 28 6.73478 28 7V10.75L27.58 10.93L24.93 8.27C24.7412 8.08265 24.486 7.97752 24.22 7.97752C23.954 7.97752 23.6988 8.08265 23.51 8.27L19.27 12.51C19.0826 12.6988 18.9775 12.954 18.9775 13.22C18.9775 13.486 19.0826 13.7412 19.27 13.93L21.93 16.58L21.75 17H18C17.7348 17 17.4804 17.1054 17.2929 17.2929C17.1054 17.4804 17 17.7348 17 18V24C17 24.2652 17.1054 24.5196 17.2929 24.7071C17.4804 24.8946 17.7348 25 18 25H21.75L21.93 25.42L19.27 28.07C19.0858 28.2607 18.982 28.5149 18.98 28.78C18.9839 29.0447 19.0874 29.2983 19.27 29.49L23.51 33.73C23.7007 33.9142 23.9549 34.018 24.22 34.02C24.4847 34.0161 24.7383 33.9126 24.93 33.73L27.58 31.07L28 31.25V35C28 35.2652 28.1054 35.5196 28.2929 35.7071C28.4804 35.8946 28.7348 36 29 36H35C35.2652 36 35.5196 35.8946 35.7071 35.7071C35.8946 35.5196 36 35.2652 36 35V31.25L36.42 31.07L39.07 33.73C39.2634 33.9084 39.5169 34.0075 39.78 34.0075C40.0431 34.0075 40.2966 33.9084 40.49 33.73L44.73 29.49C44.9126 29.2983 45.0161 29.0447 45.02 28.78C45.018 28.5149 44.9142 28.2607 44.73 28.07L42.07 25.42L42.25 25H46C46.2652 25 46.5196 24.8946 46.7071 24.7071C46.8946 24.5196 47 24.2652 47 24V18C47 17.7348 46.8946 17.4804 46.7071 17.2929C46.5196 17.1054 46.2652 17 46 17ZM45 23H41.54C41.3291 23.0002 41.1237 23.067 40.9531 23.1909C40.7825 23.3148 40.6554 23.4895 40.59 23.69C40.4354 24.1924 40.231 24.6781 39.98 25.14C39.878 25.3306 39.8396 25.5488 39.8701 25.7628C39.9007 25.9769 39.9987 26.1755 40.15 26.33L42.61 28.78L39.78 31.61L37.33 29.15C37.1755 28.9987 36.9769 28.9007 36.7628 28.8701C36.5488 28.8396 36.3306 28.878 36.14 28.98C35.6781 29.231 35.1924 29.4354 34.69 29.59C34.4895 29.6554 34.3148 29.7825 34.1909 29.9531C34.067 30.1237 34.0002 30.3291 34 30.54V34H30V30.54C29.9998 30.3291 29.933 30.1237 29.8091 29.9531C29.6852 29.7825 29.5105 29.6554 29.31 29.59C28.8076 29.4354 28.3219 29.231 27.86 28.98C27.6694 28.878 27.4512 28.8396 27.2372 28.8701C27.0231 28.9007 26.8245 28.9987 26.67 29.15L24.22 31.61L21.39 28.78L23.85 26.33C24.0013 26.1755 24.0993 25.9769 24.1299 25.7628C24.1604 25.5488 24.122 25.3306 24.02 25.14C23.769 24.6781 23.5646 24.1924 23.41 23.69C23.3446 23.4895 23.2175 23.3148 23.0469 23.1909C22.8763 23.067 22.6709 23.0002 22.46 23H19V19H22.46C22.6709 18.9998 22.8763 18.933 23.0469 18.8091C23.2175 18.6852 23.3446 18.5105 23.41 18.31C23.5646 17.8076 23.769 17.3219 24.02 16.86C24.122 16.6694 24.1604 16.4512 24.1299 16.2372C24.0993 16.0231 24.0013 15.8245 23.85 15.67L21.39 13.22L24.22 10.39L26.67 12.85C26.8245 13.0013 27.0231 13.0993 27.2372 13.1299C27.4512 13.1604 27.6694 13.122 27.86 13.02C28.3219 12.769 28.8076 12.5646 29.31 12.41C29.5105 12.3446 29.6852 12.2175 29.8091 12.0469C29.933 11.8763 29.9998 11.6709 30 11.46V8H34V11.46C34.0002 11.6709 34.067 11.8763 34.1909 12.0469C34.3148 12.2175 34.4895 12.3446 34.69 12.41C35.1924 12.5646 35.6781 12.769 36.14 13.02C36.3306 13.122 36.5488 13.1604 36.7628 13.1299C36.9769 13.0993 37.1755 13.0013 37.33 12.85L39.78 10.39L42.61 13.22L40.15 15.67C39.9987 15.8245 39.9007 16.0231 39.8701 16.2372C39.8396 16.4512 39.878 16.6694 39.98 16.86C40.231 17.3219 40.4354 17.8076 40.59 18.31C40.6554 18.5105 40.7825 18.6852 40.9531 18.8091C41.1237 18.933 41.3291 18.9998 41.54 19H45V23Z" fill="white"/>
<path d="M38 21C38 19.8133 37.6481 18.6533 36.9888 17.6666C36.3295 16.6799 35.3925 15.9109 34.2961 15.4567C33.1997 15.0026 31.9933 14.8838 30.8295 15.1153C29.6656 15.3468 28.5965 15.9182 27.7574 16.7574C26.9182 17.5965 26.3468 18.6656 26.1153 19.8295C25.8838 20.9933 26.0026 22.1997 26.4567 23.2961C26.9109 24.3925 27.6799 25.3295 28.6666 25.9888C29.6533 26.6481 30.8133 27 32 27C33.5908 26.9984 35.116 26.3658 36.2409 25.2409C37.3658 24.116 37.9984 22.5908 38 21V21ZM28 21C28 20.2089 28.2346 19.4355 28.6741 18.7777C29.1137 18.1199 29.7384 17.6072 30.4693 17.3045C31.2002 17.0017 32.0044 16.9225 32.7804 17.0769C33.5563 17.2312 34.269 17.6122 34.8284 18.1716C35.3878 18.731 35.7688 19.4437 35.9231 20.2196C36.0775 20.9956 35.9983 21.7998 35.6955 22.5307C35.3928 23.2616 34.8801 23.8864 34.2223 24.3259C33.5645 24.7654 32.7911 25 32 25C30.9391 25 29.9217 24.5786 29.1716 23.8284C28.4214 23.0783 28 22.0609 28 21Z" fill="white"/>
<path d="M55 23H53C53 17.4305 50.7875 12.089 46.8492 8.15076C42.911 4.21249 37.5695 2 32 2C26.4305 2 21.089 4.21249 17.1508 8.15076C13.2125 12.089 11 17.4305 11 23H9C7.4087 23 5.88258 23.6321 4.75736 24.7574C3.63214 25.8826 3 27.4087 3 29C3 30.5913 3.63214 32.1174 4.75736 33.2426C5.88258 34.3679 7.4087 35 9 35H14C14.2652 35 14.5196 34.8946 14.7071 34.7071C14.8946 34.5196 15 34.2652 15 34V24C15 23.7348 14.8946 23.4804 14.7071 23.2929C14.5196 23.1054 14.2652 23 14 23H13C13 17.9609 15.0018 13.1282 18.565 9.56497C22.1282 6.00178 26.9609 4 32 4C37.0391 4 41.8718 6.00178 45.435 9.56497C48.9982 13.1282 51 17.9609 51 23H50C49.7348 23 49.4804 23.1054 49.2929 23.2929C49.1054 23.4804 49 23.7348 49 24V34C49 34.2652 49.1054 34.5196 49.2929 34.7071C49.4804 34.8946 49.7348 35 50 35H51V38C51 38.2652 50.8946 38.5196 50.7071 38.7071C50.5196 38.8946 50.2652 39 50 39H42.82C42.6124 38.4173 42.2304 37.9126 41.7258 37.5548C41.2212 37.1969 40.6186 37.0032 40 37H38C37.2044 37 36.4413 37.3161 35.8787 37.8787C35.3161 38.4413 35 39.2044 35 40C35 40.7956 35.3161 41.5587 35.8787 42.1213C36.4413 42.6839 37.2044 43 38 43H40C40.6186 42.9968 41.2212 42.8031 41.7258 42.4452C42.2304 42.0874 42.6124 41.5827 42.82 41H50C50.7949 40.9976 51.5566 40.6808 52.1187 40.1187C52.6808 39.5566 52.9976 38.7949 53 38V35H55C56.5913 35 58.1174 34.3679 59.2426 33.2426C60.3679 32.1174 61 30.5913 61 29C61 27.4087 60.3679 25.8826 59.2426 24.7574C58.1174 23.6321 56.5913 23 55 23ZM9 33C7.93913 33 6.92172 32.5786 6.17157 31.8284C5.42143 31.0783 5 30.0609 5 29C5 27.9391 5.42143 26.9217 6.17157 26.1716C6.92172 25.4214 7.93913 25 9 25V33ZM13 33H11V25H13V33ZM40 41H38C37.7348 41 37.4804 40.8946 37.2929 40.7071C37.1054 40.5196 37 40.2652 37 40C37 39.7348 37.1054 39.4804 37.2929 39.2929C37.4804 39.1054 37.7348 39 38 39H40C40.2652 39 40.5196 39.1054 40.7071 39.2929C40.8946 39.4804 41 39.7348 41 40C41 40.2652 40.8946 40.5196 40.7071 40.7071C40.5196 40.8946 40.2652 41 40 41ZM53 33H51V25H53V33ZM55 33V25C56.0609 25 57.0783 25.4214 57.8284 26.1716C58.5786 26.9217 59 27.9391 59 29C59 30.0609 58.5786 31.0783 57.8284 31.8284C57.0783 32.5786 56.0609 33 55 33Z" fill="white"/>
</svg>
